# xmcd
#
# Track frame offsets:
#	150
#	14775
#	29860
#	42145
#	56605
#	69143
#	79188
#	91351
#	103426
#	116436
#	128578
#	142140
#	155723
#	168598
#	183078
#	196663
#	208181
#	225311
#	238258
#	254155
#	268072
#	282242
#	297549
#	309606
#
# Disc length: 4309 seconds
#
# Revision: 1
# Processed by: cddbd v1.5.1PL0 Copyright (c) Steve Scherf et al.
# Submitted via: audiograbber 1.83.01
#
DISCID=7210d318
DTITLE=Τόλης Βοσκόπουλος - Ανεπαπανάληπτος cd2
DYEAR=1900
DGENRE=
TTITLE0=Οι αναμνήσεις
TTITLE1=Μ'εμαθες να αγαπώ
TTITLE2=Το πεπρωμένο
TTITLE3=Το δίλλημα
TTITLE4=Την εγκατ'αλειψα
TTITLE5=Τ' απομεσημερα
TTITLE6=Δεν με νοιάζει
TTITLE7=Σε λατρεύω
TTITLE8=Και 'συ θα φύγεις
TTITLE9=Μην λυπάσαι
TTITLE10=Η αξιοπρέπεια
TTITLE11=Η χθεσινή μου η μνηστή
TTITLE12=Δεν ξέρω
TTITLE13=Λυπάμαι
TTITLE14=Με δάκρυα δάκρυα
TTITLE15=η νύχτα
TTITLE16=Δώσ'μου το αθάνατο νερο
TTITLE17=Στο καφενέ καθόμουνα
TTITLE18=Σαν της γαρδένιας τον ανθό
TTITLE19=Μ' εκδικήθηκε
TTITLE20=Αποκλε'ιεται
TTITLE21=Του χωρισμού η ώρα
TTITLE22=Μ' ανάστησες καρδιά μου
TTITLE23=Γεννήθηκα να δίνω
EXTD=
EXTT0=
EXTT1=
EXTT2=
EXTT3=
EXTT4=
EXTT5=
EXTT6=
EXTT7=
EXTT8=
EXTT9=
EXTT10=
EXTT11=
EXTT12=
EXTT13=
EXTT14=
EXTT15=
EXTT16=
EXTT17=
EXTT18=
EXTT19=
EXTT20=
EXTT21=
EXTT22=
EXTT23=
PLAYORDER=
